<?xml version="1.0" standalone="no"?>
<!DOCTYPE svg PUBLIC "-//W3C//DTD SVG 20010904//EN"
 "http://www.w3.org/TR/2001/REC-SVG-20010904/DTD/svg10.dtd">
<svg version="1.0" xmlns="http://www.w3.org/2000/svg"
 width="700.000000pt" height="700.000000pt" viewBox="0 0 700.000000 700.000000"
 preserveAspectRatio="xMidYMid meet">
<metadata>
Created by potrace 1.14, written by Peter Selinger 2001-2017
</metadata>
<g transform="translate(0.000000,700.000000) scale(0.100000,-0.100000)"
fill="#000000" stroke="none">
<path d="M2361 6448 c-135 -20 -253 -130 -276 -258 -4 -19 -7 -164 -7 -322 l0
-288 -42 -1 c-22 0 -113 -1 -201 -2 -159 -2 -161 -2 -227 -35 -76 -37 -120
-83 -157 -162 -26 -56 -31 -123 -31 -401 l0 -56 -297 0 c-327 -1 -354 -5 -440
-65 -164 -112 -178 -374 -27 -507 89 -78 118 -84 456 -85 163 -1 299 -4 302
-7 5 -4 10 -296 7 -395 l-1 -31 -93 -5 c-115 -6 -184 -34 -250 -103 -124 -127
-120 -331 8 -459 62 -61 130 -88 238 -92 50 -3 93 -6 95 -9 7 -7 4 -416 -3
-423 -4 -4 -142 -7 -308 -8 -301 -1 -302 -1 -358 -26 -124 -56 -195 -160 -198
-292 -4 -152 79 -271 224 -320 42 -15 95 -18 348 -18 l297 -1 0 -26 c5 -384 4
-373 33 -435 40 -86 126 -161 211 -183 11 -3 102 -7 201 -9 99 -2 187 -4 196
-4 15 0 17 -29 17 -287 0 -159 3 -303 6 -321 25 -133 147 -246 285 -261 127
-15 254 47 317 156 43 72 46 97 48 405 1 163 5 300 8 304 7 6 416 9 423 3 2
-2 5 -45 7 -95 4 -69 11 -103 30 -145 119 -256 476 -256 596 0 19 41 26 76 30
145 2 50 6 93 8 95 2 2 275 4 399 2 l30 -1 1 -308 1 -307 31 -67 c61 -128 173
-194 312 -185 145 9 248 87 295 222 14 43 17 94 17 348 0 269 2 297 17 297 9
0 99 2 201 3 167 2 190 5 234 25 79 36 131 85 167 158 35 70 39 108 39 375 l0
96 298 1 c322 0 350 4 434 59 47 31 103 106 123 163 56 159 -33 349 -190 410
-58 22 -72 23 -362 24 l-303 1 -1 130 c0 149 1 299 4 302 1 1 43 4 93 6 137 7
223 52 287 152 106 165 39 390 -140 472 -43 20 -78 27 -150 31 l-93 5 0 98
c-1 55 -1 149 -1 210 0 61 2 114 6 117 4 4 138 7 298 8 178 0 307 5 330 12 88
25 164 89 209 175 18 34 22 59 23 137 0 81 -4 102 -24 145 -45 90 -140 163
-233 181 -18 3 -162 6 -320 6 l-288 0 -1 167 c-1 91 -1 170 0 174 1 5 -5 36
-14 69 -26 102 -87 173 -191 220 -44 20 -67 22 -234 25 -102 1 -193 3 -202 3
-15 0 -17 25 -17 288 1 158 -2 302 -5 320 -17 92 -95 193 -178 230 -62 28 -77
32 -139 33 -153 4 -294 -109 -324 -258 -6 -29 -10 -174 -10 -332 l1 -281 -40
-1 c-50 -1 -355 0 -377 0 -13 1 -17 17 -21 94 -6 113 -35 184 -99 247 -164
159 -430 110 -526 -98 -18 -38 -26 -76 -30 -145 -3 -50 -7 -94 -9 -96 -3 -3
-375 -4 -419 -2 -6 1 -10 110 -11 304 -1 284 -3 305 -23 358 -55 143 -201 229
-350 207z m2560 -1533 c0 -5 1 -646 2 -1423 l2 -1412 -40 -1 c-226 -4 -2797 0
-2801 4 -5 4 -8 2599 -5 2812 l1 30 1420 0 c940 0 1420 -3 1421 -10z"/>
<path d="M2740 4246 c-110 -38 -189 -127 -215 -241 -13 -58 -14 -958 -1 -1015
41 -177 224 -289 399 -244 97 25 166 81 214 174 l28 55 0 525 0 525 -29 57
c-73 147 -243 218 -396 164z"/>
<path d="M4115 4262 c-42 -7 -125 -35 -125 -42 0 -4 -11 -12 -24 -18 -38 -17
-104 -107 -121 -165 -13 -44 -16 -128 -15 -544 0 -472 1 -494 20 -547 35 -91
142 -186 229 -203 180 -33 326 51 392 227 18 47 21 959 4 1035 -22 96 -79 173
-166 222 -50 28 -141 45 -194 35z"/>
</g>
</svg>
